<svg width="40" height="41" viewBox="0 0 40 41" fill="none" xmlns="http://www.w3.org/2000/svg">
<g clip-path="url(#clip0_0_4833)">
<path d="M19 9C19 8.17157 19.6716 7.5 20.5 7.5C21.3284 7.5 22 8.17157 22 9V34.5H19V9Z" fill="#B7876C"/>
<path d="M19 23V20V19H23L19 23Z" fill="#8B6149"/>
<rect x="3" y="10.5" width="34" height="11" rx="2" fill="white"/>
<path d="M12.3179 18.5H10.448V13.1961H12.336C13.9339 13.1961 14.9102 14.1906 14.9102 15.8429C14.9102 17.5003 13.9339 18.5 12.3179 18.5ZM11.5487 17.5547H12.2712C13.2787 17.5547 13.8096 17.0316 13.8096 15.8429C13.8096 14.6619 13.2787 14.1414 12.2764 14.1414H11.5487V17.5547ZM20.5527 15.8481C20.5527 17.578 19.4806 18.5725 18.0743 18.5725C16.6629 18.5725 15.5985 17.5729 15.5985 15.8481C15.5985 14.1181 16.6629 13.1236 18.0743 13.1236C19.4806 13.1236 20.5527 14.1181 20.5527 15.8481ZM16.7147 15.8481C16.7147 16.9798 17.256 17.5962 18.0743 17.5962C18.8953 17.5962 19.4365 16.9798 19.4365 15.8481C19.4365 14.7163 18.8953 14.1 18.0743 14.1C17.256 14.1 16.7147 14.7163 16.7147 15.8481ZM25.7698 13.1961V18.5H24.8168L22.486 15.1307H22.4471V18.5H21.3465V13.1961H22.315L24.6277 16.5628H24.6743V13.1961H25.7698ZM26.6639 18.5V13.1961H30.2222V14.1077H27.7645V15.3923H30.0383V16.3013H27.7645V17.5884H30.2326V18.5H26.6639Z" fill="#48AC3F"/>
<ellipse cx="20.5" cy="40.5" rx="16.5" ry="7" fill="#7C553E"/>
</g>
<defs>
<clipPath id="clip0_0_4833">
<rect width="40" height="40" fill="white" transform="translate(0 0.5)"/>
</clipPath>
</defs>
</svg>
