<svg width="24" height="24" viewBox="0 0 24 24" fill="none" xmlns="http://www.w3.org/2000/svg">
<path fill-rule="evenodd" clip-rule="evenodd" d="M14.8536 2.48349C13.3295 1.17217 11.0757 1.17217 9.55155 2.48349C8.89321 3.04992 8.07076 3.39059 7.20471 3.45558C5.19976 3.60605 3.60605 5.19976 3.45558 7.20472C3.39059 8.07076 3.04992 8.89321 2.48349 9.55155C1.17217 11.0757 1.17217 13.3295 2.48349 14.8536C3.04992 15.512 3.39059 16.3344 3.45558 17.2005C3.60605 19.2054 5.19976 20.7991 7.20472 20.9496C8.07076 21.0146 8.89321 21.3553 9.55155 21.9217C11.0757 23.233 13.3295 23.233 14.8536 21.9217C15.512 21.3553 16.3344 21.0146 17.2005 20.9496C19.2054 20.7991 20.7991 19.2054 20.9496 17.2005C21.0146 16.3344 21.3553 15.512 21.9217 14.8536C23.233 13.3295 23.233 11.0757 21.9217 9.55155C21.3553 8.89321 21.0146 8.07076 20.9496 7.20471C20.7991 5.19976 19.2054 3.60605 17.2005 3.45558C16.3344 3.39059 15.512 3.04992 14.8536 2.48349ZM17.5388 9.95519C17.9545 9.49336 17.917 8.78204 17.4552 8.36639C16.9934 7.95075 16.2821 7.98819 15.8664 8.45002L11.1909 13.6451L8.42283 11.3384C7.94551 10.9406 7.23613 11.0051 6.83837 11.4824C6.44061 11.9597 6.5051 12.6691 6.98241 13.0668L10.3606 15.882C10.9489 16.3723 11.8197 16.3098 12.332 15.7405L17.5388 9.95519Z" fill="url(#paint0_linear_1389_54889)"/>
<defs>
<linearGradient id="paint0_linear_1389_54889" x1="1.5" y1="12.2026" x2="22.9052" y2="12.2026" gradientUnits="userSpaceOnUse">
<stop stop-color="#10B981"/>
<stop offset="1" stop-color="#A3E635"/>
</linearGradient>
</defs>
</svg>
