<svg width="26" height="27" viewBox="0 0 26 27" fill="none" xmlns="http://www.w3.org/2000/svg">
<g filter="url(#filter0_d_1389_54860)">
<path d="M4 8H17.2C18.8802 8 19.7202 8 20.362 8.32698C20.9265 8.6146 21.3854 9.07354 21.673 9.63803C22 10.2798 22 11.1198 22 12.8V14.2C22 15.8802 22 16.7202 21.673 17.362C21.3854 17.9265 20.9265 18.3854 20.362 18.673C19.7202 19 18.8802 19 17.2 19H8.8C7.11984 19 6.27976 19 5.63803 18.673C5.07354 18.3854 4.6146 17.9265 4.32698 17.362C4 16.7202 4 15.8802 4 14.2V8Z" fill="url(#paint0_linear_1389_54860)"/>
<path d="M4 8C4 7.06812 4 6.60218 4.15224 6.23463C4.35523 5.74458 4.74458 5.35523 5.23463 5.15224C5.60218 5 6.06812 5 7 5H9.34315C10.1606 5 10.5694 5 10.9369 5.15224C11.3045 5.30448 11.5935 5.59351 12.1716 6.17157L14 8H4V8Z" fill="url(#paint1_linear_1389_54860)"/>
</g>
<defs>
<filter id="filter0_d_1389_54860" x="-3" y="0" width="32" height="32" filterUnits="userSpaceOnUse" color-interpolation-filters="sRGB">
<feFlood flood-opacity="0" result="BackgroundImageFix"/>
<feColorMatrix in="SourceAlpha" type="matrix" values="0 0 0 0 0 0 0 0 0 0 0 0 0 0 0 0 0 0 127 0" result="hardAlpha"/>
<feOffset dy="4"/>
<feGaussianBlur stdDeviation="2"/>
<feComposite in2="hardAlpha" operator="out"/>
<feColorMatrix type="matrix" values="0 0 0 0 0 0 0 0 0 0 0 0 0 0 0 0 0 0 0.25 0"/>
<feBlend mode="normal" in2="BackgroundImageFix" result="effect1_dropShadow_1389_54860"/>
<feBlend mode="normal" in="SourceGraphic" in2="effect1_dropShadow_1389_54860" result="shape"/>
</filter>
<linearGradient id="paint0_linear_1389_54860" x1="4" y1="13.5" x2="22" y2="13.5" gradientUnits="userSpaceOnUse">
<stop stop-color="#10B981"/>
<stop offset="1" stop-color="#A3E635"/>
</linearGradient>
<linearGradient id="paint1_linear_1389_54860" x1="4" y1="6.5" x2="14" y2="6.5" gradientUnits="userSpaceOnUse">
<stop stop-color="#10B981"/>
<stop offset="1" stop-color="#A3E635"/>
</linearGradient>
</defs>
</svg>
